# xmcd
#
# Track frame offsets:
# 150
# 15133
# 31169
# 45863
# 60140
# 79715
# 96027
# 111755
# 127610
# 144055
# 160476
# 178661
# 194691
# 211027
# 225455
# 242166
# 258225
# 272593
# 292548
# 309387
#
# Disc length: 4380 seconds
#
#
# Revision: 0
# Processed by: cddbd v1.5.1PL2 Copyright (c) Steve Scherf et al.
# Submitted via: FreeRIP 2.945 
#
DISCID=e6111a14
DTITLE=tropicalia - tropicalia
DYEAR=2006
DGENRE=forro
TTITLE0=fogo no fogo
TTITLE1=te amava sem saber
TTITLE2=voce manda em mim
TTITLE3=amor adolescente
TTITLE4=nossa cançao
TTITLE5=não sou mais o mesmo
TTITLE6=porque disse adeus
TTITLE7=barco a vela
TTITLE8=doce paixão
TTITLE9=pra salvar meu coraçao
TTITLE10=fica comigo mais um pouco
TTITLE11=aceite eu coração
TTITLE12=dominado
TTITLE13=seu amor esta em mim
TTITLE14=na hora em que voce me prender
TTITLE15=saudade mata
TTITLE16=final feliz
TTITLE17=enquanto houve amor
TTITLE18=nossa cançao
TTITLE19=enquanto houver amor
EXTD=um dos melhores forros romanticos do momento!!!
EXTT0=
EXTT1=
EXTT2=
EXTT3=
EXTT4=
EXTT5=
EXTT6=
EXTT7=
EXTT8=
EXTT9=
EXTT10=
EXTT11=
EXTT12=
EXTT13=
EXTT14=
EXTT15=
EXTT16=
EXTT17=
EXTT18=
EXTT19=
PLAYORDER=
